<svg width="165" height="1082" viewBox="0 0 165 1082" fill="none" xmlns="http://www.w3.org/2000/svg">
<path opacity="0.1" d="M13 0.399992L162 0.399998L162 27.6L13 27.6L13 0.399992ZM13 54.0594L121.8 54.0594L121.8 78.6594L100.4 78.6594L104.2 76.6594C110.733 79.1927 115.667 83.326 119 89.0594C122.467 94.926 124.2 101.726 124.2 109.459C124.2 117.459 122.467 124.526 119 130.659C115.533 136.926 110.667 141.793 104.4 145.259C98.2667 148.726 91.1333 150.459 83 150.459L13 150.459L13 124.259L76.8 124.259C81.6 124.259 85.7333 123.326 89.2 121.459C92.6667 119.593 95.3333 116.993 97.2 113.659C99.2 110.459 100.2 106.659 100.2 102.259C100.2 97.9927 99.2 94.1927 97.2 90.8594C95.3333 87.526 92.6667 84.926 89.2 83.0594C85.7333 81.1927 81.6 80.2594 76.8 80.2594L13 80.2594L13 54.0594ZM11.8 222.214C11.8 209.947 15.1333 200.414 21.8 193.614C28.6 186.947 38.1333 183.614 50.4 183.614L98.4 183.614L98.4 164.814L121.8 164.814L121.8 166.814C121.8 172.147 123.2 176.281 126 179.214C128.8 182.147 132.867 183.614 138.2 183.614L146.6 183.614L146.6 209.814L121.8 209.814L121.8 234.814L98.4 234.814L98.4 209.814L51.8 209.814C48.2 209.814 45.1333 210.414 42.6 211.614C40.0667 212.947 38.1333 214.947 36.8 217.614C35.4667 220.414 34.8 223.947 34.8 228.214C34.8 229.147 34.8667 230.214 35 231.414C35.1333 232.747 35.2667 234.014 35.4 235.214L13 235.214C12.7333 233.347 12.4667 231.214 12.2 228.814C11.9333 226.414 11.8 224.214 11.8 222.214ZM10.6 305.855C10.6 294.655 13.1333 284.855 18.2 276.455C23.2667 268.055 30.1333 261.521 38.8 256.855C47.4667 252.188 57.0667 249.855 67.6 249.855C78.5333 249.855 88.2 252.188 96.6 256.855C105.133 261.655 111.867 268.121 116.8 276.255C121.733 284.521 124.2 293.721 124.2 303.855C124.2 312.388 122.8 319.855 120 326.255C117.2 332.788 113.333 338.321 108.4 342.855C103.467 347.388 97.8 350.855 91.4 353.255C85.1333 355.655 78.3333 356.855 71 356.855C69.1333 356.855 67.2 356.721 65.2 356.455C63.2 356.321 61.4667 355.988 60 355.455L60 271.455L80 271.455L80 340.655L70.6 328.255C76.7333 329.455 82.2 329.121 87 327.255C91.8 325.521 95.6 322.588 98.4 318.455C101.2 314.455 102.6 309.588 102.6 303.855C102.6 298.388 101.2 293.521 98.4 289.255C95.7333 284.988 91.7333 281.721 86.4 279.455C81.2 277.321 74.8667 276.521 67.4 277.055C60.7333 276.521 54.8 277.388 49.6 279.655C44.5333 282.055 40.6 285.521 37.8 290.055C35 294.721 33.6 300.055 33.6 306.055C33.6 312.055 34.8667 317.121 37.4 321.255C39.9333 325.521 43.3333 328.855 47.6 331.255L37.2 352.455C32 350.321 27.4 346.988 23.4 342.455C19.4 337.921 16.2667 332.521 14 326.255C11.7333 320.121 10.6 313.321 10.6 305.855ZM13 376.716L164.4 376.716L164.4 402.916L13 402.916L13 376.716ZM13 427.106L164.4 427.106L164.4 453.306L13 453.306L13 427.106ZM13 477.497L121.8 477.497L121.8 503.697L13 503.697L13 477.497ZM134 477.497L162 477.497L162 503.697L134 503.697L134 477.497ZM10.6 569.287C10.6 557.687 13.3333 547.554 18.8 538.887C24.4 530.354 31.9333 524.487 41.4 521.287L50.8 540.887C44.6666 543.687 39.8666 547.554 36.4 552.487C32.9333 557.554 31.2 563.154 31.2 569.287C31.2 574.087 32.2666 577.887 34.4 580.687C36.5333 583.487 39.3333 584.887 42.8 584.887C44.9333 584.887 46.6666 584.287 48 583.087C49.4666 582.021 50.6666 580.487 51.6 578.487C52.6666 576.621 53.5333 574.554 54.2 572.287L59.2 554.487C61.8666 545.287 65.9333 538.287 71.4 533.487C76.8666 528.821 83.3333 526.487 90.8 526.487C97.4666 526.487 103.267 528.154 108.2 531.487C113.267 534.954 117.2 539.687 120 545.687C122.8 551.821 124.2 558.821 124.2 566.688C124.2 576.954 121.733 586.021 116.8 593.888C111.867 601.754 104.933 607.354 96 610.687L86.6 590.688C91.5333 588.821 95.4666 585.687 98.4 581.287C101.333 576.887 102.8 571.954 102.8 566.487C102.8 562.087 101.8 558.621 99.8 556.087C97.8 553.554 95.2 552.287 92 552.287C90 552.287 88.2666 552.821 86.8 553.887C85.3333 554.954 84.1333 556.421 83.2 558.287C82.2666 560.287 81.4 562.554 80.6 565.087L75.4 582.487C72.7333 591.421 68.7333 598.287 63.4 603.087C58.0666 608.021 51.5333 610.487 43.8 610.487C37.2666 610.487 31.4666 608.754 26.4 605.287C21.4666 601.821 17.6 597.021 14.8 590.887C12 584.754 10.6 577.554 10.6 569.287ZM10.6 682.222C10.6 671.022 13.1333 661.222 18.2 652.822C23.2666 644.422 30.1333 637.889 38.8 633.222C47.4666 628.555 57.0666 626.222 67.6 626.222C78.5333 626.222 88.2 628.555 96.6 633.222C105.133 638.022 111.867 644.489 116.8 652.622C121.733 660.889 124.2 670.089 124.2 680.222C124.2 688.755 122.8 696.222 120 702.622C117.2 709.155 113.333 714.689 108.4 719.222C103.467 723.755 97.8 727.222 91.4 729.622C85.1333 732.022 78.3333 733.222 71 733.222C69.1333 733.222 67.2 733.089 65.2 732.822C63.2 732.689 61.4666 732.355 60 731.822L60 647.822L80 647.822L80 717.022L70.6 704.622C76.7333 705.822 82.2 705.489 87 703.622C91.8 701.889 95.6 698.955 98.4 694.822C101.2 690.822 102.6 685.955 102.6 680.222C102.6 674.755 101.2 669.889 98.4 665.622C95.7333 661.355 91.7333 658.089 86.4 655.822C81.2 653.689 74.8666 652.889 67.4 653.422C60.7333 652.889 54.8 653.755 49.6 656.022C44.5333 658.422 40.6 661.889 37.8 666.422C35 671.089 33.6 676.422 33.6 682.422C33.6 688.422 34.8666 693.489 37.4 697.622C39.9333 701.889 43.3333 705.222 47.6 707.622L37.2 728.822C32 726.689 27.4 723.355 23.4 718.822C19.4 714.289 16.2666 708.889 14 702.622C11.7333 696.489 10.6 689.689 10.6 682.222ZM13 783.93L121.8 741.13L121.8 769.73L36.2 800.73L36.2 790.13L121.8 821.33L121.8 849.93L13 807.13L13 783.93ZM10.6 914.058C10.6 902.858 13.1333 893.058 18.2 884.658C23.2666 876.258 30.1333 869.724 38.8 865.058C47.4666 860.391 57.0666 858.058 67.6 858.058C78.5333 858.058 88.2 860.391 96.6 865.058C105.133 869.858 111.867 876.324 116.8 884.458C121.733 892.724 124.2 901.924 124.2 912.058C124.2 920.591 122.8 928.058 120 934.458C117.2 940.991 113.333 946.524 108.4 951.058C103.467 955.591 97.8 959.058 91.4 961.458C85.1333 963.858 78.3333 965.058 71 965.058C69.1333 965.058 67.2 964.924 65.2 964.658C63.2 964.524 61.4666 964.191 60 963.658L60 879.658L80 879.658L80 948.858L70.6 936.458C76.7333 937.658 82.2 937.324 87 935.458C91.8 933.724 95.6 930.791 98.4 926.658C101.2 922.658 102.6 917.791 102.6 912.058C102.6 906.591 101.2 901.724 98.4 897.458C95.7333 893.191 91.7333 889.924 86.4 887.658C81.2 885.524 74.8666 884.724 67.4 885.258C60.7333 884.724 54.8 885.591 49.6 887.858C44.5333 890.258 40.6 893.724 37.8 898.258C35 902.924 33.6 908.258 33.6 914.258C33.6 920.258 34.8666 925.324 37.4 929.458C39.9333 933.724 43.3333 937.058 47.6 939.458L37.2 960.658C32 958.524 27.4 955.191 23.4 950.658C19.4 946.124 16.2666 940.724 14 934.458C11.7333 928.324 10.6 921.524 10.6 914.058ZM13 984.919L121.8 984.919L121.8 1009.52L100.4 1009.52L104.2 1007.52C110.733 1010.05 115.667 1014.19 119 1019.92C122.467 1025.79 124.2 1032.59 124.2 1040.32C124.2 1048.32 122.467 1055.39 119 1061.52C115.533 1067.79 110.667 1072.65 104.4 1076.12C98.2666 1079.59 91.1333 1081.32 83 1081.32L13 1081.32L13 1055.12L76.8 1055.12C81.6 1055.12 85.7333 1054.19 89.2 1052.32C92.6666 1050.45 95.3333 1047.85 97.2 1044.52C99.2 1041.32 100.2 1037.52 100.2 1033.12C100.2 1028.85 99.2 1025.05 97.2 1021.72C95.3333 1018.39 92.6666 1015.79 89.2 1013.92C85.7333 1012.05 81.6 1011.12 76.8 1011.12L13 1011.12L13 984.919ZM-239 10.6L-211 10.6L-211 37L-239 37L-239 10.6ZM-239 86.1859L-211 86.1859L-211 112.586L-239 112.586L-239 86.1859Z" fill="black" fill-opacity="0.55"/>
</svg>
