<svg width="21" height="21" viewBox="0 0 21 21" fill="none" xmlns="http://www.w3.org/2000/svg">
<path d="M10.4999 17.6394C6.55186 17.6394 3.35986 14.4474 3.35986 10.4994C3.35986 6.55138 6.55186 3.35938 10.4999 3.35938C14.4479 3.35938 17.6399 6.55138 17.6399 10.4994C17.6399 14.4474 14.4479 17.6394 10.4999 17.6394ZM10.4999 4.19937C7.01386 4.19937 4.19986 7.01337 4.19986 10.4994C4.19986 13.9854 7.01386 16.7994 10.4999 16.7994C13.9859 16.7994 16.7999 13.9854 16.7999 10.4994C16.7999 7.01337 13.9859 4.19937 10.4999 4.19937Z" fill="#3AE000"/>
<path d="M9.65986 13.6075L6.00586 9.95355L6.59386 9.36555L9.65986 12.4315L14.4059 7.68555L14.9939 8.27355L9.65986 13.6075Z" fill="#3AE000"/>
</svg>
