<svg width="20" height="20" viewBox="0 0 20 20" fill="none" xmlns="http://www.w3.org/2000/svg">
<path d="M9.99998 14.1667C9.55795 14.1667 9.13403 13.9911 8.82147 13.6785C8.50891 13.3659 8.33331 12.942 8.33331 12.5C8.33331 11.575 9.07498 10.8333 9.99998 10.8333C10.442 10.8333 10.8659 11.0089 11.1785 11.3215C11.4911 11.634 11.6666 12.058 11.6666 12.5C11.6666 12.942 11.4911 13.3659 11.1785 13.6785C10.8659 13.9911 10.442 14.1667 9.99998 14.1667ZM15 16.6667V8.33333H4.99998V16.6667H15ZM15 6.66667C15.442 6.66667 15.8659 6.84226 16.1785 7.15482C16.4911 7.46738 16.6666 7.8913 16.6666 8.33333V16.6667C16.6666 17.1087 16.4911 17.5326 16.1785 17.8452C15.8659 18.1577 15.442 18.3333 15 18.3333H4.99998C4.55795 18.3333 4.13403 18.1577 3.82147 17.8452C3.50891 17.5326 3.33331 17.1087 3.33331 16.6667V8.33333C3.33331 7.40833 4.07498 6.66667 4.99998 6.66667H5.83331V5C5.83331 3.89493 6.2723 2.83512 7.0537 2.05372C7.8351 1.27232 8.89491 0.833332 9.99998 0.833332C10.5472 0.833332 11.089 0.941106 11.5945 1.1505C12.1 1.3599 12.5593 1.66681 12.9463 2.05372C13.3332 2.44063 13.6401 2.89996 13.8495 3.40548C14.0589 3.91101 14.1666 4.45282 14.1666 5V6.66667H15ZM9.99998 2.5C9.33694 2.5 8.70105 2.76339 8.23221 3.23223C7.76337 3.70107 7.49998 4.33696 7.49998 5V6.66667H12.5V5C12.5 4.33696 12.2366 3.70107 11.7677 3.23223C11.2989 2.76339 10.663 2.5 9.99998 2.5Z" fill="black"/>
</svg>
