<svg width="20" height="20" viewBox="0 0 20 20" fill="none" xmlns="http://www.w3.org/2000/svg">
<path opacity="0.2" fill-rule="evenodd" clip-rule="evenodd" d="M15.69 9.534C16.1278 9.68896 16.5236 9.94351 16.8462 10.2776C17.1688 10.6116 17.4094 11.0161 17.549 11.459L18.85 15.509C19.362 17.103 18.52 18.821 16.971 19.347C16.6725 19.4484 16.3593 19.5001 16.044 19.5H7.954C6.324 19.5 5 18.14 5 16.462C5 16.139 5.05 15.817 5.15 15.51L6.45 11.46C6.58957 11.0168 6.83025 10.6121 7.15304 10.2778C7.47584 9.94357 7.87192 9.68893 8.31 9.534C8.116 8.901 8 8.297 8 7.786C8 5.419 9.79 3.5 12 3.5C14.21 3.5 16 5.419 16 7.786C16 8.297 15.885 8.901 15.69 9.534Z" fill="#FF0000"/>
<path fill-rule="evenodd" clip-rule="evenodd" d="M10 8.5C10.5304 8.5 11.0391 8.28929 11.4142 7.91421C11.7893 7.53914 12 7.03043 12 6.5C12 5.96957 11.7893 5.46086 11.4142 5.08579C11.0391 4.71071 10.5304 4.5 10 4.5C9.46957 4.5 8.96086 4.71071 8.58579 5.08579C8.21071 5.46086 8 5.96957 8 6.5C8 7.03043 8.21071 7.53914 8.58579 7.91421C8.96086 8.28929 9.46957 8.5 10 8.5ZM10 5.5C10.2652 5.5 10.5196 5.60536 10.7071 5.79289C10.8946 5.98043 11 6.23478 11 6.5C11 6.76522 10.8946 7.01957 10.7071 7.20711C10.5196 7.39464 10.2652 7.5 10 7.5C9.73478 7.5 9.48043 7.39464 9.29289 7.20711C9.10536 7.01957 9 6.76522 9 6.5C9 6.23478 9.10536 5.98043 9.29289 5.79289C9.48043 5.60536 9.73478 5.5 10 5.5Z" fill="#FF0000"/>
<path fill-rule="evenodd" clip-rule="evenodd" d="M5.5 6.286C5.5 8.959 8.153 13.5 10 13.5C11.848 13.5 14.5 8.959 14.5 6.286C14.5 3.65 12.493 1.5 10 1.5C7.507 1.5 5.5 3.65 5.5 6.286ZM13.5 6.286C13.5 8.479 11.152 12.5 10 12.5C8.849 12.5 6.5 8.48 6.5 6.286C6.5 4.187 8.075 2.5 10 2.5C11.925 2.5 13.5 4.187 13.5 6.286Z" fill="#FF0000"/>
<path d="M13.4348 9.14018C13.3152 9.08874 13.2204 8.99269 13.1706 8.87246C13.1207 8.75223 13.1197 8.61729 13.1677 8.49632C13.2158 8.37535 13.3091 8.27789 13.4279 8.22465C13.5466 8.1714 13.6815 8.16657 13.8038 8.21118C14.2104 8.37247 14.5769 8.62074 14.8775 8.93858C15.178 9.25643 15.4054 9.63617 15.5438 10.0512L16.8778 14.0512C17.0282 14.5023 17.0692 14.9828 16.9975 15.4529C16.9257 15.923 16.7432 16.3693 16.4651 16.755C16.1869 17.1407 15.821 17.4548 15.3976 17.6713C14.9742 17.8878 14.5053 18.0005 14.0298 18.0002H5.96978C5.49439 18.0002 5.02581 17.8872 4.60265 17.6706C4.17949 17.454 3.81387 17.1399 3.53592 16.7542C3.25797 16.3685 3.07566 15.9223 3.004 15.4524C2.93235 14.9824 2.9734 14.5022 3.12378 14.0512L4.45678 10.0512C4.59754 9.62873 4.83057 9.24291 5.13897 8.92171C5.44736 8.60051 5.8234 8.35199 6.23978 8.19418C6.30118 8.17087 6.36656 8.15988 6.4322 8.16184C6.49784 8.1638 6.56245 8.17867 6.62234 8.2056C6.68224 8.23253 6.73624 8.27099 6.78127 8.31879C6.8263 8.36659 6.86147 8.42279 6.88478 8.48418C6.90809 8.54558 6.91908 8.61096 6.91712 8.6766C6.91516 8.74224 6.9003 8.80685 6.87337 8.86674C6.84644 8.92664 6.80798 8.98064 6.76018 9.02567C6.71238 9.0707 6.65618 9.10587 6.59478 9.12918C6.31684 9.23433 6.06582 9.40008 5.85998 9.61441C5.65413 9.82873 5.49863 10.0862 5.40478 10.3682L4.07178 14.3682C3.97164 14.6688 3.94438 14.989 3.99225 15.3023C4.04011 15.6155 4.16174 15.913 4.3471 16.17C4.53246 16.427 4.77624 16.6363 5.05837 16.7807C5.34049 16.925 5.65288 17.0003 5.96978 17.0002H14.0318C14.3487 17.0002 14.6611 16.9248 14.9432 16.7803C15.2253 16.6359 15.469 16.4264 15.6543 16.1693C15.8396 15.9121 15.9611 15.6147 16.0088 15.3013C16.0565 14.988 16.0291 14.6678 15.9288 14.3672L14.5968 10.3672C14.5045 10.0906 14.3528 9.8376 14.1524 9.62582C13.9521 9.41405 13.7078 9.24864 13.4368 9.14118" fill="#FF0000"/>
</svg>
