<svg width="102" height="102" viewBox="0 0 102 102" fill="none" xmlns="http://www.w3.org/2000/svg">
<path d="M57.9612 16.8172C57.2694 15.5801 56.2603 14.55 55.0377 13.8329C53.8151 13.1158 52.4234 12.7378 51.0061 12.7378C49.5888 12.7378 48.1971 13.1158 46.9745 13.8329C45.7519 14.55 44.7427 15.5801 44.051 16.8172L13.7506 71.0174C13.0728 72.2297 12.7236 73.5981 12.7377 74.987C12.7518 76.3758 13.1286 77.7369 13.8309 78.9352C14.5331 80.1335 15.5364 81.1274 16.7411 81.8185C17.9459 82.5096 19.3104 82.8737 20.6993 82.8749H81.2873C82.6768 82.8749 84.0421 82.5115 85.2478 81.8209C86.4534 81.1303 87.4576 80.1364 88.1606 78.9379C88.8635 77.7394 89.2409 76.3779 89.2553 74.9886C89.2697 73.5992 88.9205 72.2302 88.2425 71.0174L57.9612 16.8172ZM55.781 65.3437C55.781 66.6117 55.2772 67.8279 54.3806 68.7245C53.4839 69.6212 52.2678 70.1249 50.9997 70.1249C49.7316 70.1249 48.5155 69.6212 47.6189 68.7245C46.7222 67.8279 46.2185 66.6117 46.2185 65.3437C46.2185 64.0756 46.7222 62.8595 47.6189 61.9628C48.5155 61.0662 49.7316 60.5624 50.9997 60.5624C52.2678 60.5624 53.4839 61.0662 54.3806 61.9628C55.2772 62.8595 55.781 64.0756 55.781 65.3437ZM47.8122 50.9999V35.0624C47.8122 34.217 48.148 33.4063 48.7458 32.8085C49.3436 32.2107 50.1543 31.8749 50.9997 31.8749C51.8451 31.8749 52.6558 32.2107 53.2536 32.8085C53.8514 33.4063 54.1872 34.217 54.1872 35.0624V50.9999C54.1872 51.8453 53.8514 52.6561 53.2536 53.2538C52.6558 53.8516 51.8451 54.1874 50.9997 54.1874C50.1543 54.1874 49.3436 53.8516 48.7458 53.2538C48.148 52.6561 47.8122 51.8453 47.8122 50.9999Z" fill="#CF0000"/>
</svg>
