<svg width="24" height="25" viewBox="0 0 24 25" fill="none" xmlns="http://www.w3.org/2000/svg">
<path d="M9.68244 1.56003C9.86921 1.09842 10.1896 0.703099 10.6025 0.424744C11.0154 0.146389 11.502 -0.00231934 11.9999 -0.00231934C12.4979 -0.00231934 12.9845 0.146389 13.3974 0.424744C13.8103 0.703099 14.1307 1.09842 14.3174 1.56003C16.1659 2.06838 17.7963 3.16947 18.9584 4.6942C20.1205 6.21892 20.7499 8.08296 20.7499 10V15.8713L23.0399 19.3063C23.1655 19.4945 23.2377 19.7133 23.2487 19.9394C23.2596 20.1654 23.209 20.3902 23.1023 20.5897C22.9955 20.7893 22.8366 20.9561 22.6425 21.0724C22.4483 21.1887 22.2262 21.2501 21.9999 21.25H16.3312C16.1807 22.2914 15.66 23.2437 14.8646 23.9325C14.0691 24.6212 13.0521 25.0003 11.9999 25.0003C10.9477 25.0003 9.93077 24.6212 9.13532 23.9325C8.33987 23.2437 7.8192 22.2914 7.66869 21.25H1.99994C1.77364 21.2501 1.55157 21.1887 1.35743 21.0724C1.16329 20.9561 1.00436 20.7893 0.8976 20.5897C0.790838 20.3902 0.740249 20.1654 0.751228 19.9394C0.762208 19.7133 0.834345 19.4945 0.959943 19.3063L3.24994 15.8713V10C3.24994 5.97003 5.97494 2.57503 9.68244 1.56003ZM10.2324 21.25C10.3615 21.6158 10.6009 21.9326 10.9176 22.1567C11.2343 22.3807 11.6126 22.501 12.0006 22.501C12.3885 22.501 12.7669 22.3807 13.0835 22.1567C13.4002 21.9326 13.6396 21.6158 13.7687 21.25H10.2324ZM11.9999 3.75003C10.3423 3.75003 8.75263 4.40851 7.58053 5.58061C6.40842 6.75271 5.74994 8.34242 5.74994 10V16.25C5.75 16.4969 5.67693 16.7383 5.53994 16.9438L4.33619 18.75H19.6624L18.4587 16.9438C18.3222 16.7382 18.2495 16.4968 18.2499 16.25V10C18.2499 8.34242 17.5915 6.75271 16.4194 5.58061C15.2473 4.40851 13.6575 3.75003 11.9999 3.75003Z" fill="#676767"/>
</svg>
