<svg width="27" height="24" viewBox="0 0 27 24" fill="none" xmlns="http://www.w3.org/2000/svg">
<path d="M7.5 1.875C6.6712 1.875 5.87634 2.20424 5.29029 2.79029C4.70424 3.37634 4.375 4.1712 4.375 5C4.375 5.8288 4.70424 6.62366 5.29029 7.20971C5.87634 7.79576 6.6712 8.125 7.5 8.125C8.3288 8.125 9.12366 7.79576 9.70971 7.20971C10.2958 6.62366 10.625 5.8288 10.625 5C10.625 4.1712 10.2958 3.37634 9.70971 2.79029C9.12366 2.20424 8.3288 1.875 7.5 1.875ZM2.5 5C2.5 3.67392 3.02678 2.40215 3.96447 1.46447C4.90215 0.526784 6.17392 0 7.5 0C8.82608 0 10.0979 0.526784 11.0355 1.46447C11.9732 2.40215 12.5 3.67392 12.5 5C12.5 6.32608 11.9732 7.59785 11.0355 8.53553C10.0979 9.47322 8.82608 10 7.5 10C6.17392 10 4.90215 9.47322 3.96447 8.53553C3.02678 7.59785 2.5 6.32608 2.5 5ZM18.75 4.375C18.2527 4.375 17.7758 4.57254 17.4242 4.92417C17.0725 5.27581 16.875 5.75272 16.875 6.25C16.875 6.74728 17.0725 7.22419 17.4242 7.57583C17.7758 7.92746 18.2527 8.125 18.75 8.125C19.2473 8.125 19.7242 7.92746 20.0758 7.57583C20.4275 7.22419 20.625 6.74728 20.625 6.25C20.625 5.75272 20.4275 5.27581 20.0758 4.92417C19.7242 4.57254 19.2473 4.375 18.75 4.375ZM15 6.25C15 5.25544 15.3951 4.30161 16.0984 3.59835C16.8016 2.89509 17.7554 2.5 18.75 2.5C19.7446 2.5 20.6984 2.89509 21.4017 3.59835C22.1049 4.30161 22.5 5.25544 22.5 6.25C22.5 7.24456 22.1049 8.19839 21.4017 8.90165C20.6984 9.60491 19.7446 10 18.75 10C17.7554 10 16.8016 9.60491 16.0984 8.90165C15.3951 8.19839 15 7.24456 15 6.25ZM0 15.3125C0 14.5666 0.296316 13.8512 0.823762 13.3238C1.35121 12.7963 2.06658 12.5 2.8125 12.5H12.1875C12.9334 12.5 13.6488 12.7963 14.1762 13.3238C14.7037 13.8512 15 14.5666 15 15.3125V15.445L13.1138 17.3312C12.5238 17.9221 12.1049 18.6616 11.9013 19.4712L11.6588 20.445C10.6063 20.9375 9.24625 21.25 7.5 21.25C3.965 21.25 2.0125 19.9688 0.99 18.5063C0.455657 17.7381 0.121398 16.8487 0.0174999 15.9188C0.0087137 15.8331 0.00287699 15.7473 0 15.6612V15.3125ZM1.875 15.62V15.635L1.88375 15.735C1.8925 15.8275 1.9125 15.97 1.9525 16.1462C2.035 16.4975 2.2 16.9662 2.52625 17.4325C3.1425 18.3125 4.4725 19.375 7.5 19.375C10.5275 19.375 11.8575 18.3125 12.475 17.4312C12.8245 16.9264 13.0447 16.3435 13.1163 15.7337L13.1238 15.6337L13.125 15.6188V15.3125C13.125 15.0639 13.0262 14.8254 12.8504 14.6496C12.6746 14.4738 12.4361 14.375 12.1875 14.375H2.8125C2.56386 14.375 2.3254 14.4738 2.14959 14.6496C1.97377 14.8254 1.875 15.0639 1.875 15.3125V15.62ZM21.375 10.8375L13.9963 18.2162C13.5671 18.6469 13.2622 19.1854 13.1138 19.775L12.5413 22.0637C12.4843 22.2915 12.4873 22.5301 12.55 22.7563C12.6127 22.9825 12.733 23.1886 12.899 23.3545C13.065 23.5204 13.2712 23.6405 13.4975 23.703C13.7237 23.7655 13.9623 23.7684 14.19 23.7113L16.4775 23.14C17.0677 22.9915 17.6067 22.6861 18.0375 22.2563L25.415 14.8787C25.9372 14.3402 26.2267 13.6179 26.2209 12.8678C26.2152 12.1177 25.9147 11.3999 25.3844 10.8693C24.854 10.3388 24.1363 10.0381 23.3862 10.0322C22.6361 10.0262 21.9137 10.3155 21.375 10.8375Z" fill="black"/>
</svg>
