<svg width="23" height="25" viewBox="0 0 23 25" fill="none" xmlns="http://www.w3.org/2000/svg">
<path fill-rule="evenodd" clip-rule="evenodd" d="M10.0613 0.259335C10.3676 0.0892512 10.7121 0 11.0625 0C11.4129 0 11.7574 0.0892512 12.0638 0.259335L21.0637 5.25934C21.7188 5.62309 22.125 6.31308 22.125 7.06308V16.9881C22.125 17.7381 21.7188 18.4281 21.0637 18.7918L12.0638 23.7918C11.7574 23.9619 11.4129 24.0512 11.0625 24.0512C10.7121 24.0512 10.3676 23.9619 10.0613 23.7918L1.06125 18.7918C0.73953 18.6132 0.471463 18.3517 0.284855 18.0346C0.0982479 17.7174 -0.000104251 17.3561 8.29237e-08 16.9881V7.06308C8.29237e-08 6.31308 0.40625 5.62309 1.06125 5.25934L10.0613 0.259335ZM11.1538 1.89933C11.1258 1.88379 11.0944 1.87563 11.0625 1.87563C11.0306 1.87563 10.9992 1.88379 10.9713 1.89933L1.97125 6.89934C1.94226 6.91548 1.91808 6.93903 1.90117 6.96758C1.88426 6.99613 1.87523 7.02866 1.875 7.06184V16.9893C1.875 17.0568 1.9125 17.1193 1.97125 17.1518L10.9713 22.1518C10.9992 22.1674 11.0306 22.1755 11.0625 22.1755C11.0944 22.1755 11.1258 22.1674 11.1538 22.1518L20.1538 17.1518C20.1827 17.1357 20.2069 17.1121 20.2238 17.0836C20.2407 17.055 20.2498 17.0225 20.25 16.9893V7.06308C20.25 7.02969 20.2411 6.99691 20.2241 6.96812C20.2072 6.93933 20.1829 6.91559 20.1538 6.89934L11.1538 1.89933Z" fill="black"/>
<path fill-rule="evenodd" clip-rule="evenodd" d="M5.125 12.0256C5.125 10.4509 5.75056 8.94069 6.86405 7.82719C7.97755 6.71369 9.48778 6.08813 11.0625 6.08813C12.6372 6.08813 14.1474 6.71369 15.2609 7.82719C16.3744 8.94069 17 10.4509 17 12.0256C17 13.6004 16.3744 15.1106 15.2609 16.2241C14.1474 17.3376 12.6372 17.9631 11.0625 17.9631C9.48778 17.9631 7.97755 17.3376 6.86405 16.2241C5.75056 15.1106 5.125 13.6004 5.125 12.0256ZM11.0625 7.96313C9.98506 7.96313 8.95175 8.39115 8.18988 9.15301C7.42801 9.91488 7 10.9482 7 12.0256C7 13.1031 7.42801 14.1364 8.18988 14.8983C8.95175 15.6601 9.98506 16.0881 11.0625 16.0881C12.1399 16.0881 13.1733 15.6601 13.9351 14.8983C14.697 14.1364 15.125 13.1031 15.125 12.0256C15.125 10.9482 14.697 9.91488 13.9351 9.15301C13.1733 8.39115 12.1399 7.96313 11.0625 7.96313Z" fill="black"/>
</svg>
