<svg width="102" height="102" viewBox="0 0 102 102" fill="none" xmlns="http://www.w3.org/2000/svg">
<path d="M57.9622 16.8177C57.2704 15.5806 56.2612 14.5504 55.0387 13.8334C53.8161 13.1163 52.4244 12.7383 51.0071 12.7383C49.5897 12.7383 48.198 13.1163 46.9755 13.8334C45.7529 14.5504 44.7437 15.5806 44.0519 16.8177L13.7516 71.0179C13.0738 72.2302 12.7246 73.5986 12.7387 74.9875C12.7528 76.3763 13.1296 77.7374 13.8319 78.9357C14.5341 80.134 15.5373 81.1279 16.7421 81.819C17.9469 82.5101 19.3114 82.8742 20.7003 82.8754H81.2883C82.6778 82.8753 84.0431 82.512 85.2487 81.8214C86.4544 81.1308 87.4585 80.1369 88.1615 78.9384C88.8645 77.7399 89.2419 76.3784 89.2563 74.9891C89.2707 73.5997 88.9215 72.2307 88.2434 71.0179L57.9622 16.8177ZM55.7819 65.3442C55.7819 66.6122 55.2782 67.8283 54.3815 68.725C53.4849 69.6217 52.2688 70.1254 51.0007 70.1254C49.7326 70.1254 48.5165 69.6217 47.6198 68.725C46.7232 67.8283 46.2194 66.6122 46.2194 65.3442C46.2194 64.0761 46.7232 62.86 47.6198 61.9633C48.5165 61.0666 49.7326 60.5629 51.0007 60.5629C52.2688 60.5629 53.4849 61.0666 54.3815 61.9633C55.2782 62.86 55.7819 64.0761 55.7819 65.3442ZM47.8132 51.0004V35.0629C47.8132 34.2175 48.149 33.4068 48.7468 32.809C49.3446 32.2112 50.1553 31.8754 51.0007 31.8754C51.8461 31.8754 52.6568 32.2112 53.2546 32.809C53.8524 33.4068 54.1882 34.2175 54.1882 35.0629V51.0004C54.1882 51.8458 53.8524 52.6565 53.2546 53.2543C52.6568 53.8521 51.8461 54.1879 51.0007 54.1879C50.1553 54.1879 49.3446 53.8521 48.7468 53.2543C48.149 52.6565 47.8132 51.8458 47.8132 51.0004Z" fill="#EC7965"/>
</svg>
