<svg width="30" height="31" viewBox="0 0 30 31" fill="none" xmlns="http://www.w3.org/2000/svg">
<g clip-path="url(#clip0_3_162)">
<path d="M12.6824 4.56003C12.8692 4.09842 13.1896 3.7031 13.6025 3.42474C14.0154 3.14639 14.502 2.99768 14.9999 2.99768C15.4979 2.99768 15.9845 3.14639 16.3974 3.42474C16.8103 3.7031 17.1307 4.09842 17.3174 4.56003C19.1659 5.06838 20.7963 6.16947 21.9584 7.6942C23.1205 9.21892 23.7499 11.083 23.7499 13V18.8713L26.0399 22.3063C26.1655 22.4945 26.2377 22.7133 26.2487 22.9394C26.2596 23.1654 26.209 23.3902 26.1023 23.5897C25.9955 23.7893 25.8366 23.9561 25.6425 24.0724C25.4483 24.1887 25.2262 24.2501 24.9999 24.25H19.3312C19.1807 25.2914 18.66 26.2437 17.8646 26.9325C17.0691 27.6212 16.0521 28.0003 14.9999 28.0003C13.9477 28.0003 12.9308 27.6212 12.1353 26.9325C11.3399 26.2437 10.8192 25.2914 10.6687 24.25H4.99994C4.77364 24.2501 4.55157 24.1887 4.35743 24.0724C4.16329 23.9561 4.00436 23.7893 3.8976 23.5897C3.79084 23.3902 3.74025 23.1654 3.75123 22.9394C3.76221 22.7133 3.83434 22.4945 3.95994 22.3063L6.24994 18.8713V13C6.24994 8.97003 8.97494 5.57503 12.6824 4.56003ZM13.2324 24.25C13.3615 24.6158 13.6009 24.9326 13.9176 25.1567C14.2343 25.3807 14.6126 25.501 15.0006 25.501C15.3885 25.501 15.7669 25.3807 16.0835 25.1567C16.4002 24.9326 16.6396 24.6158 16.7687 24.25H13.2324ZM14.9999 6.75003C13.3423 6.75003 11.7526 7.40851 10.5805 8.58061C9.40842 9.75271 8.74994 11.3424 8.74994 13V19.25C8.75 19.4969 8.67693 19.7383 8.53994 19.9438L7.33619 21.75H22.6624L21.4587 19.9438C21.3222 19.7382 21.2495 19.4968 21.2499 19.25V13C21.2499 11.3424 20.5915 9.75271 19.4194 8.58061C18.2473 7.40851 16.6575 6.75003 14.9999 6.75003Z" fill="#676767"/>
<circle cx="21.875" cy="8.625" r="4.375" fill="#CF0000"/>
</g>
<defs>
<clipPath id="clip0_3_162">
<rect width="30" height="30" fill="white" transform="translate(0 0.5)"/>
</clipPath>
</defs>
</svg>
