<svg width="30" height="30" viewBox="0 0 30 30" fill="none" xmlns="http://www.w3.org/2000/svg">
<g opacity="0.5">
<path d="M10 6.875C9.1712 6.875 8.37634 7.20424 7.79029 7.79029C7.20424 8.37634 6.875 9.1712 6.875 10C6.875 10.8288 7.20424 11.6237 7.79029 12.2097C8.37634 12.7958 9.1712 13.125 10 13.125C10.8288 13.125 11.6237 12.7958 12.2097 12.2097C12.7958 11.6237 13.125 10.8288 13.125 10C13.125 9.1712 12.7958 8.37634 12.2097 7.79029C11.6237 7.20424 10.8288 6.875 10 6.875ZM5 10C5 8.67392 5.52678 7.40215 6.46447 6.46447C7.40215 5.52678 8.67392 5 10 5C11.3261 5 12.5979 5.52678 13.5355 6.46447C14.4732 7.40215 15 8.67392 15 10C15 11.3261 14.4732 12.5979 13.5355 13.5355C12.5979 14.4732 11.3261 15 10 15C8.67392 15 7.40215 14.4732 6.46447 13.5355C5.52678 12.5979 5 11.3261 5 10ZM21.25 9.375C20.7527 9.375 20.2758 9.57254 19.9242 9.92417C19.5725 10.2758 19.375 10.7527 19.375 11.25C19.375 11.7473 19.5725 12.2242 19.9242 12.5758C20.2758 12.9275 20.7527 13.125 21.25 13.125C21.7473 13.125 22.2242 12.9275 22.5758 12.5758C22.9275 12.2242 23.125 11.7473 23.125 11.25C23.125 10.7527 22.9275 10.2758 22.5758 9.92417C22.2242 9.57254 21.7473 9.375 21.25 9.375ZM17.5 11.25C17.5 10.2554 17.8951 9.30161 18.5984 8.59835C19.3016 7.89509 20.2554 7.5 21.25 7.5C22.2446 7.5 23.1984 7.89509 23.9017 8.59835C24.6049 9.30161 25 10.2554 25 11.25C25 12.2446 24.6049 13.1984 23.9017 13.9017C23.1984 14.6049 22.2446 15 21.25 15C20.2554 15 19.3016 14.6049 18.5984 13.9017C17.8951 13.1984 17.5 12.2446 17.5 11.25ZM2.5 20.3125C2.5 19.5666 2.79632 18.8512 3.32376 18.3238C3.85121 17.7963 4.56658 17.5 5.3125 17.5H14.6875C15.4334 17.5 16.1488 17.7963 16.6762 18.3238C17.2037 18.8512 17.5 19.5666 17.5 20.3125V20.445L15.6138 22.3312C15.0238 22.9221 14.6049 23.6616 14.4013 24.4712L14.1588 25.445C13.1063 25.9375 11.7463 26.25 10 26.25C6.465 26.25 4.5125 24.9688 3.49 23.5063C2.95566 22.7381 2.6214 21.8487 2.5175 20.9188C2.50871 20.8331 2.50288 20.7473 2.5 20.6612V20.3125ZM4.375 20.62V20.635L4.38375 20.735C4.3925 20.8275 4.4125 20.97 4.4525 21.1462C4.535 21.4975 4.7 21.9662 5.02625 22.4325C5.6425 23.3125 6.9725 24.375 10 24.375C13.0275 24.375 14.3575 23.3125 14.975 22.4312C15.3245 21.9264 15.5447 21.3435 15.6163 20.7337L15.6238 20.6337L15.625 20.6188V20.3125C15.625 20.0639 15.5262 19.8254 15.3504 19.6496C15.1746 19.4738 14.9361 19.375 14.6875 19.375H5.3125C5.06386 19.375 4.8254 19.4738 4.64959 19.6496C4.47377 19.8254 4.375 20.0639 4.375 20.3125V20.62ZM23.875 15.8375L16.4963 23.2162C16.0671 23.6469 15.7622 24.1854 15.6138 24.775L15.0413 27.0637C14.9843 27.2915 14.9873 27.5301 15.05 27.7563C15.1127 27.9825 15.233 28.1886 15.399 28.3545C15.565 28.5204 15.7712 28.6405 15.9975 28.703C16.2237 28.7655 16.4623 28.7684 16.69 28.7113L18.9775 28.14C19.5677 27.9915 20.1067 27.6861 20.5375 27.2563L27.915 19.8787C28.4372 19.3402 28.7267 18.6179 28.7209 17.8678C28.7152 17.1177 28.4147 16.3999 27.8844 15.8693C27.354 15.3388 26.6363 15.0381 25.8862 15.0322C25.1361 15.0262 24.4137 15.3155 23.875 15.8375Z" fill="black"/>
</g>
</svg>
