<svg width="20" height="20" viewBox="0 0 20 20" fill="none" xmlns="http://www.w3.org/2000/svg">
<path d="M15.625 1.875H4.375C4.04348 1.875 3.72554 2.0067 3.49112 2.24112C3.2567 2.47554 3.125 2.79348 3.125 3.125V16.875C3.125 17.2065 3.2567 17.5245 3.49112 17.7589C3.72554 17.9933 4.04348 18.125 4.375 18.125H15.625C15.9565 18.125 16.2745 17.9933 16.5089 17.7589C16.7433 17.5245 16.875 17.2065 16.875 16.875V3.125C16.875 2.79348 16.7433 2.47554 16.5089 2.24112C16.2745 2.0067 15.9565 1.875 15.625 1.875ZM10.625 11.1938V11.25C10.625 11.4158 10.5592 11.5747 10.4419 11.6919C10.3247 11.8092 10.1658 11.875 10 11.875C9.83424 11.875 9.67527 11.8092 9.55806 11.6919C9.44085 11.5747 9.375 11.4158 9.375 11.25V10.625C9.375 10.4592 9.44085 10.3003 9.55806 10.1831C9.67527 10.0658 9.83424 10 10 10C11.0336 10 11.875 9.29688 11.875 8.4375C11.875 7.57812 11.0336 6.875 10 6.875C8.96641 6.875 8.125 7.57812 8.125 8.4375V8.75C8.125 8.91576 8.05915 9.07473 7.94194 9.19194C7.82473 9.30915 7.66576 9.375 7.5 9.375C7.33424 9.375 7.17527 9.30915 7.05806 9.19194C6.94085 9.07473 6.875 8.91576 6.875 8.75V8.4375C6.875 6.88672 8.27656 5.625 10 5.625C11.7234 5.625 13.125 6.88672 13.125 8.4375C13.125 9.79531 12.0492 10.932 10.625 11.1938ZM10.9375 14.0625C10.9375 14.2479 10.8825 14.4292 10.7795 14.5833C10.6765 14.7375 10.5301 14.8577 10.3588 14.9286C10.1875 14.9996 9.99896 15.0182 9.8171 14.982C9.63525 14.9458 9.4682 14.8565 9.33709 14.7254C9.20598 14.5943 9.11669 14.4273 9.08051 14.2454C9.04434 14.0635 9.06291 13.875 9.13386 13.7037C9.20482 13.5324 9.32498 13.386 9.47915 13.283C9.63332 13.18 9.81458 13.125 10 13.125C10.2486 13.125 10.4871 13.2238 10.6629 13.3996C10.8387 13.5754 10.9375 13.8139 10.9375 14.0625Z" fill="#DAA318"/>
</svg>
