<svg width="30" height="30" viewBox="0 0 30 30" fill="none" xmlns="http://www.w3.org/2000/svg">
<g opacity="0.5">
<path fill-rule="evenodd" clip-rule="evenodd" d="M13.9988 3.23375C14.3051 3.06367 14.6496 2.97442 15 2.97442C15.3504 2.97442 15.6949 3.06367 16.0013 3.23375L25.0012 8.23375C25.6562 8.5975 26.0625 9.2875 26.0625 10.0375V19.9625C26.0625 20.7125 25.6562 21.4025 25.0012 21.7663L16.0013 26.7663C15.6949 26.9363 15.3504 27.0256 15 27.0256C14.6496 27.0256 14.3051 26.9363 13.9988 26.7663L4.99875 21.7663C4.67703 21.5876 4.40896 21.3261 4.22236 21.009C4.03575 20.6918 3.9374 20.3305 3.9375 19.9625V10.0375C3.9375 9.2875 4.34375 8.5975 4.99875 8.23375L13.9988 3.23375ZM15.0913 4.87375C15.0633 4.85821 15.0319 4.85005 15 4.85005C14.9681 4.85005 14.9367 4.85821 14.9088 4.87375L5.90875 9.87375C5.87976 9.8899 5.85558 9.91345 5.83867 9.942C5.82176 9.97055 5.81273 10.0031 5.8125 10.0363V19.9638C5.8125 20.0313 5.85 20.0938 5.90875 20.1263L14.9088 25.1263C14.9367 25.1418 14.9681 25.15 15 25.15C15.0319 25.15 15.0633 25.1418 15.0913 25.1263L24.0913 20.1263C24.1202 20.1101 24.1444 20.0866 24.1613 20.058C24.1782 20.0295 24.1873 19.9969 24.1875 19.9638V10.0375C24.1875 10.0041 24.1786 9.97133 24.1616 9.94254C24.1447 9.91375 24.1204 9.89001 24.0913 9.87375L15.0913 4.87375Z" fill="black"/>
<path fill-rule="evenodd" clip-rule="evenodd" d="M9.0625 15C9.0625 13.4253 9.68806 11.9151 10.8016 10.8016C11.9151 9.68806 13.4253 9.0625 15 9.0625C16.5747 9.0625 18.0849 9.68806 19.1984 10.8016C20.3119 11.9151 20.9375 13.4253 20.9375 15C20.9375 16.5747 20.3119 18.0849 19.1984 19.1984C18.0849 20.3119 16.5747 20.9375 15 20.9375C13.4253 20.9375 11.9151 20.3119 10.8016 19.1984C9.68806 18.0849 9.0625 16.5747 9.0625 15ZM15 10.9375C13.9226 10.9375 12.8892 11.3655 12.1274 12.1274C11.3655 12.8892 10.9375 13.9226 10.9375 15C10.9375 16.0774 11.3655 17.1108 12.1274 17.8726C12.8892 18.6345 13.9226 19.0625 15 19.0625C16.0774 19.0625 17.1108 18.6345 17.8726 17.8726C18.6345 17.1108 19.0625 16.0774 19.0625 15C19.0625 13.9226 18.6345 12.8892 17.8726 12.1274C17.1108 11.3655 16.0774 10.9375 15 10.9375Z" fill="black"/>
</g>
</svg>
