<svg width="30" height="30" viewBox="0 0 30 30" fill="none" xmlns="http://www.w3.org/2000/svg">
<path d="M26.25 16C25.5962 15.3725 24.785 15 23.9062 15C21.7475 15 20 17.2387 20 20C20 22.7613 21.7475 25 23.9062 25C24.785 25 25.5963 24.6275 26.2488 24M18.75 20H23.75M8.75 6.25C8.75 6.91304 8.48661 7.54893 8.01777 8.01777C7.54893 8.48661 6.91304 8.75 6.25 8.75C5.58696 8.75 4.95107 8.48661 4.48223 8.01777C4.01339 7.54893 3.75 6.91304 3.75 6.25C3.75 5.58696 4.01339 4.95107 4.48223 4.48223C4.95107 4.01339 5.58696 3.75 6.25 3.75C6.91304 3.75 7.54893 4.01339 8.01777 4.48223C8.48661 4.95107 8.75 5.58696 8.75 6.25ZM8.75 6.25H18.75M8.75 6.25V16.25C8.75 17.2446 9.14509 18.1984 9.84835 18.9017C10.5516 19.6049 11.5054 20 12.5 20H13.75M18.75 6.25C18.75 6.91304 19.0134 7.54893 19.4822 8.01777C19.9511 8.48661 20.587 8.75 21.25 8.75C21.913 8.75 22.5489 8.48661 23.0178 8.01777C23.4866 7.54893 23.75 6.91304 23.75 6.25C23.75 5.58696 23.4866 4.95107 23.0178 4.48223C22.5489 4.01339 21.913 3.75 21.25 3.75C20.587 3.75 19.9511 4.01339 19.4822 4.48223C19.0134 4.95107 18.75 5.58696 18.75 6.25Z" stroke="#CF0000" stroke-width="2" stroke-linecap="round" stroke-linejoin="round"/>
</svg>
