<svg width="30" height="30" viewBox="0 0 30 30" fill="none" xmlns="http://www.w3.org/2000/svg">
<path d="M8.75 21.25V22.5C8.75 22.8315 8.8817 23.1495 9.11612 23.3839C9.35054 23.6183 9.66848 23.75 10 23.75H20C20.3315 23.75 20.6495 23.6183 20.8839 23.3839C21.1183 23.1495 21.25 22.8315 21.25 22.5V21.25C21.25 20.2554 20.8549 19.3016 20.1517 18.5983C19.4484 17.8951 18.4946 17.5 17.5 17.5H12.5C11.5054 17.5 10.5516 17.8951 9.84835 18.5983C9.14509 19.3016 8.75 20.2554 8.75 21.25ZM18.75 10C18.75 10.9946 18.3549 11.9484 17.6517 12.6517C16.9484 13.3549 15.9946 13.75 15 13.75C14.0054 13.75 13.0516 13.3549 12.3483 12.6517C11.6451 11.9484 11.25 10.9946 11.25 10C11.25 9.00544 11.6451 8.05161 12.3483 7.34835C13.0516 6.64509 14.0054 6.25 15 6.25C15.9946 6.25 16.9484 6.64509 17.6517 7.34835C18.3549 8.05161 18.75 9.00544 18.75 10Z" stroke="#CF0000" stroke-width="2"/>
</svg>
