<svg width="30" height="30" viewBox="0 0 30 30" fill="none" xmlns="http://www.w3.org/2000/svg">
<path d="M3.27562 20.61H27.8381C27.899 20.6095 27.9571 20.585 28 20.5418C28.0428 20.4986 28.0669 20.4402 28.0669 20.3794V15.9563C28.0674 15.9261 28.0618 15.8961 28.0505 15.8681C28.0392 15.8401 28.0223 15.8147 28.001 15.7934C27.9797 15.772 27.9542 15.7552 27.9263 15.7439C27.8983 15.7326 27.8683 15.727 27.8381 15.7275H2.10375C2.07357 15.727 2.0436 15.7326 2.01561 15.7439C1.98763 15.7552 1.96221 15.772 1.94087 15.7934C1.91953 15.8147 1.9027 15.8401 1.89138 15.8681C1.88006 15.8961 1.87449 15.9261 1.875 15.9563V20.3813C1.875 20.505 1.97812 20.61 2.10375 20.61H3.27562ZM25.7963 22.485H4.14375V30H2.26875V22.485H2.10375C1.54611 22.484 1.01158 22.262 0.617269 21.8677C0.222954 21.4734 0.000991371 20.9389 0 20.3813L0 15.9563C0 14.7938 0.943125 13.8525 2.10375 13.8525H27.8381C29.0006 13.8525 29.9419 14.7938 29.9419 15.9563V20.3813C29.9419 21.54 28.9988 22.485 27.8381 22.485H27.6713V30H25.7963V22.485ZM14.04 8.44688V0H15.915V8.49187L20.4281 4.25063L21.7125 5.61937L15 11.9175L8.2875 5.61562L9.57187 4.24875L14.04 8.44688Z" fill="black"/>
</svg>
