<svg width="1192" height="977" viewBox="0 0 1192 977" fill="none" xmlns="http://www.w3.org/2000/svg">
<path d="M686 0.333252H691.333L692 2.99992L689.333 3.66659L691.333 8.33325L694.667 12.9999L695.333 22.3333L698.667 26.3333L702 28.3333L710 43.6666L716.667 59.6666L720 68.3333L724 75.6666L728 83.6666L730.667 88.3333L734 96.9999L734.667 99.6666L736 113.667L742 123L746.667 130.333L748 133L748.667 137.667L746 140.333L746.667 146.333L750.667 158.333L751.333 167L757.333 173.667L762 178.333L766.667 184.333L769.333 187L774 195L776.667 197.667L778.667 198.333L782.667 203.667L790 211.667L796 217.667L801.333 221.667L803.333 222.333L804 219.667L817.333 223L823.333 226.333L827.333 229L835.333 230.333L837.333 235L842.667 237.667L851.333 241L861.333 245L870.667 249.667L876.667 255L882.667 258.333L910.667 259L912.667 261.667L926.667 257.667L936.667 254.333L952 253L955.333 247.667L960.667 242.333L963.333 239L965.333 235L970 230.333L974 228.333L979.333 224.333L984 221.667L987.333 219L992 216.333L995.333 213.667L1000.67 211L1004 214.333V215.667L1006.67 217L1013.33 221.667L1018.67 226.333L1022.67 225.667L1041.33 217.667L1046 213.667L1049.33 211.667H1052V217L1065.33 215.667L1072.67 213L1074 211.667H1078L1078.67 213.667H1093.33L1096 216.333H1097.33V214.333L1102 211L1105.33 212.333L1106 213L1110.67 212.333L1117.33 209H1121.33L1124 212.333V223L1122.67 227.667L1118.67 267L1112.67 323L1111.33 331L1112 335.667L1116 341L1122 355.667L1126 366.333L1126.67 368.333V373L1125.33 376.333L1121.33 395.667L1117.33 411.667L1116.67 416.333V426.333L1126 433L1134.67 439.667L1144 446.333L1146 447.667V449H1147.33L1150.67 456.333L1152.67 462.333L1156 469.667V480.333L1154.67 481.667L1153.33 518.333L1152.67 519L1126 518.333L1120 517L1098.67 516.333L1064.67 515.667L1058 514.333L1047.33 513.667H1031.33L1028.67 519.667L1025.33 528.333L1018.67 541L1014.67 547.667L1010 555.667L1006 563L1003.33 567L998 574.333L994 579L991.333 584.333V591.667L993.333 601L996 616.333L1000 636.333L1004 657L1006.67 672.333L1009.33 683L1014 697L1016 711.667L1019.33 717.667L1030 733.667L1033.33 736.333L1040.67 740.333L1048 745L1056 749L1070.67 750.333L1073.33 754.333L1074.67 758.333L1082.67 762.333L1089.33 764.333L1094.67 767L1095.33 771H1123.33L1128.67 777L1132.67 783.667L1138.67 789L1142.67 791L1148.67 797L1152 795.667L1158 791.667L1164.67 787.667L1167.33 787H1174.67L1180.67 789.667L1184.67 793L1190 803.667L1191.33 807.667L1188.67 810.333L1183.33 813.667L1174.67 819L1166 822.333L1155.33 824.333L1146 827.667H1140.67L1137.33 825.667L1128.67 821L1126 820.333H1115.33L1110.67 821.667L1109.33 822.333H1098L1096.67 821L1074.67 819.667L1060.67 816.333L1052 812.333L1046.67 810.333L1031.33 808.333L1018 805.667L1004.67 801L996.667 797.667L985.333 792.333L978.667 788.333L973.333 783L968.667 780.333L956.667 776.333L951.333 773.667L944.667 767.667L940 762.333L936 754.333L926 749L916.667 744.333L910 738.333L901.333 729.667L898 730.333L888.667 733.667L884.667 736.333L882 739.667L879.333 743.667L843.333 779.667L834.667 785L826.667 789L821.333 793L816.667 795.667L796.667 807.667L786 813.667L776.667 819.667L770 823.667L762.667 827.667H759.333L756.667 825.667H750L745.333 829.667L737.333 845L732.667 850.333L717.333 858.333L711.333 862.333L698.667 869L691.333 875.667L684.667 880.333L678 886.333L672 892.333L668.667 896.333L666 901L656.667 910.333L650 914.333L639.333 920.333L632.667 926.333L623.333 931.667L615.333 936.333L612.667 938.333L611.333 942.333L606 947.667L599.333 952.333L597.333 954.333L595.333 958.333L590 964.333H588.667L587.333 969L581.333 974.333L578 975L577.333 977H574.667L574 975.667L564.667 971L556 964.333L546.667 959.667L536 955.667L525.333 950.333L516.667 947.667L492.667 939.667L485.333 937.667L475.333 935.667L442 925.667L424 919.667L410 917.667L401.333 916.333H392.667L388 918.333H383.333L382 916.333L383.333 910.333L384 909L385.333 885.667L388.667 875.667L392.667 868.333L395.333 865L394.667 860.333L393.333 859L392 849L379.333 842.333L373.333 839.667L352 837.667L334 835L331.333 832.333L332 823L337.333 787.667L339.333 783L342.667 780.333L344.667 774.333L349.333 757L350 745.667H328L318 746.333V747.667H314L312.667 746.333L310.667 741.667L309.333 708.333L306 691.667L302.667 683L295.333 667L292 654.333L290.667 642.333L288 637L278.667 631.667L273.333 627L272 623.667L261.333 618.333L241.333 611L230.667 607.667L215.333 605L191.333 603L188 602.333L167.333 601.667L132.667 601L120 597L100.667 591L87.3334 587L63.3334 579L56.6667 575.667L53.3334 570.333L44.6667 553.667L22.0001 519.667L16.6667 511L7.33341 496.333L2.00008 486.333L0.666748 483L6.00008 483.667L8.00008 485L16.6667 486.333L18.0001 487V488.333L20.0001 487.667L22.6667 484.333L29.3334 480.333L43.3334 466.333L50.0001 456.333L56.6667 444.333L62.0001 433.667L72.0001 430.333L73.3334 423.667L74.0001 419.667L74.6668 419V412.333L73.3334 411L72.6668 403L74.6668 396.333L77.3334 392.333L80.0001 389.667L84.6668 387.667L88.0001 387H94.0001L99.3334 389H104.667L106.667 387L110.667 388.333L121.333 396.333L126 400.333H134L171.333 393.667L215.333 385L238 381L246.667 379L260.667 385.667L265.333 389L268 395L269.333 404.333L272 413L275.333 419.667L279.333 423.667L282 424.333H287.333L294.667 423L311.333 417L320.667 412.333L326.667 408.333L338 403L342 401.667L347.333 389L348.667 382.333L349.333 381.667V375.667L346.667 368.333L345.333 364.333L343.333 347.667L342 341.667L340 333L338.667 297L332 277L331.333 274.333L347.333 258.333L352.667 251.667L357.333 245.667L360 242.333L365.333 231.667L370 221.667L374.667 208.333L378.667 199.667L382 194.333L386.667 190.333L397.333 184.333L403.333 180.333L410.667 175.667L419.333 170.333L426.667 165.667L444 155L453.333 149.667H454.667L456 157L458.667 165L462 168.333L465.333 171L468 173.667L472.667 181L476 183.667L478.667 189V195L476.667 195.667V200.333L482 198.333L498.667 190.333L502.667 188.333H504L505.333 161L508.667 157.667L514.667 155L523.333 152.333L534.667 149L544 144.333L549.333 141L554 137L558 130.333L562.667 125.667L565.333 125L570.667 115L577.333 108.333L584 104.333L587.333 101.667L590.667 99.6666L597.333 94.3333L603.333 90.3333L616 82.9999L619.333 80.3333L624 77.6666L630 72.3333L633.333 70.3333L640 64.3333L654.667 49.6666L656.667 46.3333L655.333 42.9999L654 38.9999L644 38.3333L643.333 35.6666V28.3333L644.667 24.9999L649.333 20.3333L660.667 14.3333L682 3.66659L686 0.333252Z" fill="#CF0000"/>
<path d="M686 0.333252H691.333L692 2.99992L689.333 3.66659L691.333 8.33325L694.667 12.9999L695.333 22.3333L698.667 26.3333L702 28.3333L710 43.6666L716.667 59.6666L720 68.3333L724 75.6666L728 83.6666L730.667 88.3333L734 96.9999L734.667 99.6666L736 113.667L742 123L746.667 130.333L748 133L748.667 137.667L746 140.333L746.667 146.333L750.667 158.333L751.333 167L757.333 173.667L762 178.333L766.667 184.333L769.333 187L774 195L776.667 197.667L778.667 198.333L782.667 203.667L790 211.667L796 217.667L801.333 221.667L803.333 222.333L804 219.667L817.333 223L823.333 226.333L827.333 229L835.333 230.333L837.333 235L842.667 237.667L851.333 241L861.333 245L870.667 249.667L876.667 255L882.667 258.333L910.667 259L912.667 261.667L926.667 257.667L936.667 254.333L952 253L955.333 247.667L960.667 242.333L963.333 239L965.333 235L970 230.333L974 228.333L979.333 224.333L984 221.667L987.333 219L992 216.333L995.333 213.667L1000.67 211L1004 214.333V215.667L1006.67 217L1013.33 221.667L1018.67 226.333L1022.67 225.667L1041.33 217.667L1046 213.667L1049.33 211.667H1052V217L1065.33 215.667L1072.67 213L1074 211.667H1078L1078.67 213.667H1093.33L1096 216.333H1097.33V214.333L1102 211L1105.33 212.333L1106 213L1110.67 212.333L1117.33 209H1121.33L1124 212.333V223L1122.67 227.667L1118.67 267L1112.67 323L1111.33 331L1112 335.667L1116 341L1122 355.667L1126 366.333L1126.67 368.333V373L1125.33 376.333L1121.33 395.667L1117.33 411.667L1116.67 416.333V426.333L1126 433L1134.67 439.667L1144 446.333L1146 447.667V449H1147.33L1150.67 456.333L1152.67 462.333L1156 469.667V480.333L1154.67 481.667L1153.33 518.333L1152.67 519L1126 518.333L1120 517L1098.67 516.333L1064.67 515.667L1058 514.333L1047.33 513.667H1031.33L1028.67 519.667L1025.33 528.333L1018.67 541L1014.67 547.667L1010 555.667L1006 563L1003.33 567L998 574.333L994 579L991.333 584.333V591.667L993.333 601L996 616.333L1000 636.333L1004 657L1006.67 672.333L1009.33 683L1014 697L1016 711.667L1019.33 717.667L1030 733.667L1033.33 736.333L1040.67 740.333L1048 745L1056 749L1070.67 750.333L1073.33 754.333L1074.67 758.333L1082.67 762.333L1089.33 764.333L1094.67 767L1095.33 771H1123.33L1128.67 777L1132.67 783.667L1138.67 789L1142.67 791L1148.67 797L1152 795.667L1158 791.667L1164.67 787.667L1167.33 787H1174.67L1180.67 789.667L1184.67 793L1190 803.667L1191.33 807.667L1188.67 810.333L1183.33 813.667L1174.67 819L1166 822.333L1155.33 824.333L1146 827.667H1140.67L1137.33 825.667L1128.67 821L1126 820.333H1115.33L1110.67 821.667L1109.33 822.333H1098L1096.67 821L1074.67 819.667L1060.67 816.333L1052 812.333L1046.67 810.333L1031.33 808.333L1018 805.667L1004.67 801L996.667 797.667L985.333 792.333L978.667 788.333L973.333 783L968.667 780.333L956.667 776.333L951.333 773.667L944.667 767.667L940 762.333L936 754.333L926 749L916.667 744.333L910 738.333L901.333 729.667L898 730.333L888.667 733.667L884.667 736.333L882 739.667L879.333 743.667L843.333 779.667L834.667 785L826.667 789L821.333 793L816.667 795.667L796.667 807.667L786 813.667L776.667 819.667L770 823.667L762.667 827.667H759.333L756.667 825.667H750L745.333 829.667L737.333 845L732.667 850.333L717.333 858.333L711.333 862.333L698.667 869L691.333 875.667L684.667 880.333L678 886.333L672 892.333L668.667 896.333L666 901L656.667 910.333L650 914.333L639.333 920.333L632.667 926.333L623.333 931.667L615.333 936.333L612.667 938.333L611.333 942.333L606 947.667L599.333 952.333L597.333 954.333L595.333 958.333L590 964.333H588.667L587.333 969L581.333 974.333L578 975L577.333 977H574.667L574 975.667L564.667 971L556 964.333L546.667 959.667L536 955.667L525.333 950.333L516.667 947.667L492.667 939.667L485.333 937.667L475.333 935.667L442 925.667L424 919.667L410 917.667L401.333 916.333H392.667L388 918.333H383.333L382 916.333L383.333 910.333L384 909L385.333 885.667L388.667 875.667L392.667 868.333L395.333 865L394.667 860.333L393.333 859L392 849L379.333 842.333L373.333 839.667L352 837.667L334 835L331.333 832.333L332 823L337.333 787.667L339.333 783L342.667 780.333L344.667 774.333L349.333 757L350 745.667H328L318 746.333V747.667H314L312.667 746.333L310.667 741.667L309.333 708.333L306 691.667L302.667 683L295.333 667L292 654.333L290.667 642.333L288 637L278.667 631.667L273.333 627L272 623.667L261.333 618.333L241.333 611L230.667 607.667L215.333 605L191.333 603L188 602.333L167.333 601.667L132.667 601L120 597L100.667 591L87.3334 587L63.3334 579L56.6667 575.667L53.3334 570.333L44.6667 553.667L22.0001 519.667L16.6667 511L7.33341 496.333L2.00008 486.333L0.666748 483L6.00008 483.667L8.00008 485L16.6667 486.333L18.0001 487V488.333L20.0001 487.667L22.6667 484.333L29.3334 480.333L43.3334 466.333L50.0001 456.333L56.6667 444.333L62.0001 433.667L72.0001 430.333L73.3334 423.667L74.0001 419.667L74.6668 419V412.333L73.3334 411L72.6668 403L74.6668 396.333L77.3334 392.333L80.0001 389.667L84.6668 387.667L88.0001 387H94.0001L99.3334 389H104.667L106.667 387L110.667 388.333L121.333 396.333L126 400.333H134L171.333 393.667L215.333 385L238 381L246.667 379L260.667 385.667L265.333 389L268 395L269.333 404.333L272 413L275.333 419.667L279.333 423.667L282 424.333H287.333L294.667 423L311.333 417L320.667 412.333L326.667 408.333L338 403L342 401.667L347.333 389L348.667 382.333L349.333 381.667V375.667L346.667 368.333L345.333 364.333L343.333 347.667L342 341.667L340 333L338.667 297L332 277L331.333 274.333L347.333 258.333L352.667 251.667L357.333 245.667L360 242.333L365.333 231.667L370 221.667L374.667 208.333L378.667 199.667L382 194.333L386.667 190.333L397.333 184.333L403.333 180.333L410.667 175.667L419.333 170.333L426.667 165.667L444 155L453.333 149.667H454.667L456 157L458.667 165L462 168.333L465.333 171L468 173.667L472.667 181L476 183.667L478.667 189V195L476.667 195.667V200.333L482 198.333L498.667 190.333L502.667 188.333H504L505.333 161L508.667 157.667L514.667 155L523.333 152.333L534.667 149L544 144.333L549.333 141L554 137L558 130.333L562.667 125.667L565.333 125L570.667 115L577.333 108.333L584 104.333L587.333 101.667L590.667 99.6666L597.333 94.3333L603.333 90.3333L616 82.9999L619.333 80.3333L624 77.6666L630 72.3333L633.333 70.3333L640 64.3333L654.667 49.6666L656.667 46.3333L655.333 42.9999L654 38.9999L644 38.3333L643.333 35.6666V28.3333L644.667 24.9999L649.333 20.3333L660.667 14.3333L682 3.66659L686 0.333252ZM685.333 4.33325L684 4.99992V6.33325L680.667 7.66659L662 16.9999L649.333 23.6666L646.667 26.3333V34.9999L648.667 35.6666L654.667 36.3333L658.667 43.6666H660L659.333 48.3333L635.333 72.3333L628.667 76.9999L620.667 82.9999L613.333 87.6666L601.333 94.9999L594 100.333L580.667 109.667L574.667 114.333L572 117.667L568 125.667V127L564.667 128.333L559.333 133L557.333 137L554 141.667L546.667 145.667L540.667 149.667L532.667 153L516 157.667L510 160.333L508.667 161L508 169.667L507.333 187L504.667 191.667L496.667 194.333L485.333 200.333L478.667 203L473.333 203.667L474 197L476 193.667L475.333 188.333L468.667 181L466.667 177L464 173.667L458.667 169L455.333 165L452.667 157L451.333 155L447.333 156.333L441.333 159.667L430 167L409.333 179.667L394.667 189L386.667 193.667L382.667 198.333L378 208.333L373.333 222.333L368 233.667L362 244.333L356.667 250.333L352.667 256.333L334.667 274.333L336.667 281L342 297L342.667 323L343.333 332.333L346.667 348.333L348.667 364.333L352.667 376.333V381L351.333 383.667L349.333 393L344 403.667L338 406.333L330 409.667L316.667 417.667L310 421L294 426.333L290 427H279.333L276 424.333L271.333 418.333L268 410.333L266 403L264.667 394.333L262 390.333L256.667 387L249.333 383H242L227.333 386.333L208 389.667L178 395.667L144.667 401.667L136.667 403H124V401.667L115.333 395L111.333 392.333H110V391L106 390.333L105.333 392.333H100.667L94.6668 390.333H86.6668L80.0001 393.667L76.6668 399L76.0001 401.667V408.333L78.0001 413V417.667L76.6668 420.333L75.3334 431.667L70.0001 434.333L63.3334 436.333L56.0001 452.333L52.0001 458.333L46.0001 467L30.0001 483L26.6667 485.667L23.3334 487.667L22.6667 491H18.6667L15.3334 489H7.33341L10.0001 495.667L14.6667 502.333L20.0001 511L26.6667 521.667L42.6667 545.667L48.6667 555L54.6667 566.333L58.0001 573L64.6667 576.333L82.6668 582.333L102.667 588.333L122 594.333L131.333 597L136 597.667L175.333 598.333L188.667 599L207.333 601L222.667 603L235.333 605.667L246.667 609.667L259.333 614.333L268.667 618.333L274.667 622.333L278 627.667L284.667 631.667L290 635L292.667 639.667L294 645L295.333 655L298.667 667.667L306 682.333L310 694.333L312 705L312.667 711L313.333 733L314 741.667L317.333 743L322 742.333H353.333V751.667L351.333 762.333L346.667 779L344 784.333L341.333 785.667L340 791.667L334.667 827V831.667L340 833L365.333 835.667L373.333 836.333L390 844.333L395.333 847L396 849V857L398 861V866.333L393.333 873L390.667 878.333L388.667 885L387.333 905L386 912.333L385.333 915H388.667V913H389.333H397.333L406.667 913.667L427.333 917L446 923.667L480 933.667L492.667 936.333L516 944.333L526.667 947.667L542.667 955L554 959.667L560 963.667L566 968.333L575.333 973.667L578 972.333L582.667 970.333L586 965.667V963.667H587.333L593.333 956.333L594 953H595.333L598.667 949L604.667 945.667L609.333 941L611.333 936.333L616 932.333L630 925L637.333 918.333L644.667 913.667L654 909L660.667 903L665.333 897L668 893L673.333 887.667V886.333L676 885V883.667L678.667 882.333L684 877L689.333 873.667L696 867.667L704.667 862.333L712.667 858.333L718.667 854.333L728.667 849L732.667 847L735.333 842.333L740.667 832.333L742.667 829L748.667 823L750 822.333H756L759.333 823.667L762.667 824.333L774 818.333L780 814.333L789.333 808.333L800.667 802.333L808 797.667L816.667 792.333L824 787.667L830.667 783.667L841.333 777.667L849.333 770.333L875.333 744.333L878.667 740.333L880.667 736.333L885.333 732.333L892.667 729L898 727L901.333 726.333L913.333 738.333L920 743L931.333 748.333L938 752.333L943.333 762.333L949.333 769L953.333 771.667L960 774.333L971.333 778.333L980.667 786.333L993.333 793L1011.33 800.333L1024 803.667L1038.67 806.333L1048.67 807.667L1054.67 809.667H1056.67L1057.33 811.667L1064.67 814.333L1076.67 816.333L1097.33 817.667L1101.33 819H1110L1110.67 817H1125.33L1130 818.333L1141.33 824.333H1146L1158.67 820.333L1168.67 818.333L1179.33 813L1184.67 809L1187.33 807.667L1186.67 803L1181.33 793.667L1176 790.333L1171.33 789.667L1164.67 791L1158 795L1151.33 799.667L1148 801L1146.67 798.333L1142 793.667L1136.67 790.333L1130 784.333L1126 778.333L1122.67 774.333H1102.67L1095.33 773.667L1091.33 769L1088.67 767L1080.67 764.333L1074 760.333L1071.33 757L1069.33 753L1057.33 752.333L1049.33 749L1038.67 742.333L1030.67 737.667L1027.33 734.333L1022 727L1018 721L1014.67 715L1012.67 711.667L1011.33 698.333L1005.33 680.333L1002 663.667L1000.67 653.667L997.333 638.333L992.667 613.667L990.667 602.333L989.333 595.667L988 587.667L989.333 581.667L993.333 575.667L998.667 569L1002.67 563L1010.67 548.333L1014 543.667L1019.33 533L1025.33 519.667L1028.67 510.333H1045.33L1058 511L1062 511.667L1077.33 512.333L1104.67 513L1120.67 513.667L1122 514.333L1145.33 515.667H1150L1151.33 480.333H1152.67L1153.33 473.667L1152 467.667L1148 457.667L1144 449.667L1140 447L1131.33 440.333L1120.67 432.333L1114.67 427.667L1113.33 425V417L1116.67 400.333L1120.67 385L1122.67 374.333L1123.33 373.667V367.667L1118.67 355L1112.67 341L1108.67 335.667V327L1110 319.667L1114.67 273L1116 261.667L1118.67 237.667L1120 225L1120.67 224.333L1121.33 213L1120.67 211.667L1116.67 212.333L1110 215.667L1106 216.333L1103.33 214.333L1100 215.667L1097.33 218.333L1094.67 219L1094 217L1079.33 216.333L1078 215H1074L1068.67 217.667L1061.33 219L1049.33 219.667L1048.67 217L1045.33 217.667L1038 222.333L1027.33 226.333L1020.67 229.667H1018L1014.67 226.333L1010 222.333L1006 219.667L1000 214.333L998 215V216.333L994 217.667L988.667 221.667L970 234.333L966.667 237.667L964 242.333L958.667 247.667L956 251L954 255L952.667 256.333L940 257L932 259L916 264.333L910.667 265L910 262.333H894L882.667 261.667L876.667 258.333L869.333 252.333L859.333 247L848.667 243L840 239.667L832.667 234.333L823.333 229.667H822V228.333L816.667 225.667L806.667 223.667L804.667 223L804 224.333H800L791.333 216.333L772.667 197.667L768 191L763.333 185L756.667 176.333H755.333L754 173.667L748.667 167.667L747.333 157L743.333 146.333L742.667 141L745.333 138.333L744.667 132.333L738.667 123L732.667 114.333L732 103L730.667 96.3333L726 84.9999L722 78.3333L716 65.6666L710.667 52.9999L704.667 38.9999L700.667 32.3333L698.667 29.6666H697.333V28.3333L694 25.6666L693.333 24.3333H692V16.9999L690.667 12.3333L687.333 7.66659L686.667 4.33325H685.333Z" fill="#CF0000"/>
</svg>
