<svg width="23" height="27" viewBox="0 0 23 27" fill="none" xmlns="http://www.w3.org/2000/svg">
<path d="M11.67 0.301938C11.4567 0.103218 11.1747 -0.00496705 10.8832 0.00017527C10.5918 0.00531759 10.3137 0.123386 10.1076 0.329505C9.90145 0.535625 9.78338 0.813702 9.77824 1.10515C9.7731 1.39661 9.88129 1.67868 10.08 1.89194L11.91 3.72194H11.25C9.02497 3.72194 6.84989 4.38174 4.99984 5.6179C3.14979 6.85407 1.70785 8.61108 0.85636 10.6667C0.00487447 12.7224 -0.217913 14.9844 0.216171 17.1667C0.650254 19.349 1.72171 21.3535 3.29505 22.9269C4.86839 24.5002 6.87295 25.5717 9.05524 26.0058C11.2375 26.4399 13.4995 26.2171 15.5552 25.3656C17.6109 24.5141 19.3679 23.0722 20.604 21.2221C21.8402 19.372 22.5 17.197 22.5 14.9719C22.5 14.6736 22.3815 14.3874 22.1705 14.1764C21.9595 13.9655 21.6734 13.8469 21.375 13.8469C21.0766 13.8469 20.7905 13.9655 20.5795 14.1764C20.3685 14.3874 20.25 14.6736 20.25 14.9719C20.2499 16.7481 19.7243 18.4844 18.7394 19.9624C17.7544 21.4404 16.3542 22.5939 14.715 23.2777C13.0757 23.9615 11.2709 24.145 9.52757 23.8051C7.78429 23.4652 6.18055 22.6171 4.91831 21.3675C3.65607 20.118 2.79177 18.5229 2.43424 16.7832C2.07671 15.0434 2.24193 13.2368 2.90911 11.5907C3.57629 9.94467 4.71559 8.53284 6.18355 7.53299C7.6515 6.53314 9.38248 5.99 11.1585 5.97194L10.0785 7.05194C9.87367 7.26421 9.76041 7.54844 9.76311 7.84341C9.76582 8.13839 9.88426 8.4205 10.0929 8.62898C10.3016 8.83747 10.5839 8.95565 10.8788 8.95807C11.1738 8.9605 11.4579 8.84697 11.67 8.64194L15.045 5.26694C15.2557 5.056 15.374 4.77006 15.374 4.47194C15.374 4.17381 15.2557 3.88788 15.045 3.67694L11.67 0.301938ZM17.28 9.66194C17.4947 9.86887 17.6185 10.1526 17.6241 10.4507C17.6297 10.7489 17.5168 11.0371 17.31 11.2519L11.535 17.2519C11.4301 17.3608 11.3042 17.4474 11.1651 17.5066C11.0259 17.5657 10.8762 17.5962 10.725 17.5962C10.5738 17.5962 10.4241 17.5657 10.2849 17.5066C10.1458 17.4474 10.0199 17.3608 9.915 17.2519L7.44001 14.6809C7.33238 14.5756 7.24699 14.4498 7.18889 14.3109C7.13078 14.172 7.10115 14.0229 7.10175 13.8723C7.10234 13.7218 7.13316 13.5729 7.19236 13.4344C7.25156 13.296 7.33794 13.1709 7.44639 13.0664C7.55484 12.962 7.68316 12.8804 7.82372 12.8264C7.96429 12.7725 8.11425 12.7473 8.26473 12.7524C8.4152 12.7575 8.56313 12.7927 8.69973 12.856C8.83634 12.9193 8.95885 13.0094 9.06001 13.1209L10.725 14.8489L15.69 9.69194C15.8969 9.47723 16.1807 9.35347 16.4788 9.34785C16.7769 9.34222 17.0651 9.45519 17.28 9.66194Z" fill="#CF0000"/>
</svg>
