<svg width="27" height="24" viewBox="0 0 27 24" fill="none" xmlns="http://www.w3.org/2000/svg">
<path d="M14.4988 15.2391L13.5466 16.1913C13.5749 16.0597 13.5971 15.9264 13.6128 15.792L13.6141 15.7816L13.6149 15.7711L13.6222 15.6732L13.6233 15.6603L13.625 15.6396V15.6188V15.3125C13.625 14.9313 13.4735 14.5656 13.204 14.296C12.9344 14.0265 12.5688 13.875 12.1875 13.875H2.8125C2.43125 13.875 2.06562 14.0265 1.79603 14.296C1.52645 14.5656 1.375 14.9313 1.375 15.3125V15.62V15.635V15.6568L1.3769 15.6786L1.38564 15.7786L1.38597 15.7821C1.39676 15.8961 1.42017 16.0598 1.4649 16.2569L1.46489 16.2569L1.46575 16.2606C1.55912 16.6581 1.74579 17.1892 2.11658 17.7192L2.11669 17.7193C2.84113 18.7538 4.33665 19.875 7.5 19.875C9.35917 19.875 10.6422 19.4877 11.5314 18.9582C11.488 19.0867 11.4496 19.2172 11.4163 19.3493L11.4161 19.3504L11.2324 20.0878C10.2857 20.49 9.06572 20.75 7.5 20.75C4.10067 20.75 2.31435 19.5273 1.40034 18.2205C0.913997 17.5213 0.609604 16.7119 0.514661 15.8655C0.507445 15.7947 0.502555 15.7237 0.5 15.6526V15.3125C0.5 14.6992 0.743638 14.111 1.17732 13.6773C1.61099 13.2436 2.19919 13 2.8125 13H12.1875C12.8008 13 13.389 13.2436 13.8227 13.6773C14.239 14.0937 14.4802 14.6524 14.4988 15.2391ZM14.0689 23.2261L14.0684 23.2263C13.9245 23.2624 13.7737 23.2606 13.6307 23.2211C13.4877 23.1815 13.3574 23.1056 13.2524 23.0008C13.1475 22.8959 13.0715 22.7657 13.0319 22.6227C12.9923 22.4798 12.9903 22.329 13.0263 22.1851C13.0263 22.1851 13.0263 22.185 13.0263 22.185L13.5986 19.897C13.5987 19.8969 13.5987 19.8967 13.5988 19.8965C13.7252 19.3946 13.9848 18.9361 14.3501 18.5695C14.3502 18.5694 14.3503 18.5693 14.3504 18.5692L21.7256 11.194C22.1698 10.7649 22.7646 10.5273 23.3823 10.5322C24.0011 10.5371 24.5932 10.7852 25.0308 11.2228C25.4683 11.6605 25.7162 12.2527 25.721 12.8716C25.7257 13.4892 25.4878 14.084 25.0586 14.528L17.6843 21.9023C17.3176 22.2683 16.8587 22.5283 16.3562 22.6549C16.356 22.655 16.3557 22.6551 16.3555 22.6551L14.0689 23.2261ZM7.5 1.375C6.53859 1.375 5.61656 1.75692 4.93674 2.43674C4.25692 3.11656 3.875 4.03859 3.875 5C3.875 5.96141 4.25692 6.88344 4.93674 7.56326C5.61656 8.24308 6.53859 8.625 7.5 8.625C8.46141 8.625 9.38344 8.24308 10.0633 7.56326C10.7431 6.88344 11.125 5.96141 11.125 5C11.125 4.03859 10.7431 3.11656 10.0633 2.43674C9.38344 1.75692 8.46141 1.375 7.5 1.375ZM3 5C3 3.80653 3.47411 2.66193 4.31802 1.81802C5.16193 0.974106 6.30653 0.5 7.5 0.5C8.69347 0.5 9.83807 0.974106 10.682 1.81802C11.5259 2.66193 12 3.80653 12 5C12 6.19347 11.5259 7.33807 10.682 8.18198C9.83807 9.02589 8.69347 9.5 7.5 9.5C6.30653 9.5 5.16193 9.02589 4.31802 8.18198C3.47411 7.33807 3 6.19347 3 5ZM18.75 3.875C18.1201 3.875 17.516 4.12522 17.0706 4.57062C16.6252 5.01602 16.375 5.62011 16.375 6.25C16.375 6.87989 16.6252 7.48398 17.0706 7.92938C17.516 8.37478 18.1201 8.625 18.75 8.625C19.3799 8.625 19.984 8.37478 20.4294 7.92938C20.8748 7.48398 21.125 6.87989 21.125 6.25C21.125 5.62011 20.8748 5.01602 20.4294 4.57062C19.984 4.12522 19.3799 3.875 18.75 3.875ZM15.5 6.25C15.5 5.38805 15.8424 4.5614 16.4519 3.9519C17.0614 3.34241 17.888 3 18.75 3C19.612 3 20.4386 3.34241 21.0481 3.9519C21.6576 4.5614 22 5.38805 22 6.25C22 7.11195 21.6576 7.9386 21.0481 8.5481C20.4386 9.15759 19.612 9.5 18.75 9.5C17.888 9.5 17.0614 9.15759 16.4519 8.5481C15.8424 7.9386 15.5 7.11195 15.5 6.25Z" fill="#CF0000" stroke="#CF0000"/>
</svg>
