<svg width="25" height="24" viewBox="0 0 25 24" fill="none" xmlns="http://www.w3.org/2000/svg">
<path d="M23.5 13.25C22.8462 12.6225 22.035 12.25 21.1562 12.25C18.9975 12.25 17.25 14.4887 17.25 17.25C17.25 20.0113 18.9975 22.25 21.1562 22.25C22.035 22.25 22.8463 21.8775 23.4988 21.25M16 17.25H21M6 3.5C6 4.16304 5.73661 4.79893 5.26777 5.26777C4.79893 5.73661 4.16304 6 3.5 6C2.83696 6 2.20107 5.73661 1.73223 5.26777C1.26339 4.79893 1 4.16304 1 3.5C1 2.83696 1.26339 2.20107 1.73223 1.73223C2.20107 1.26339 2.83696 1 3.5 1C4.16304 1 4.79893 1.26339 5.26777 1.73223C5.73661 2.20107 6 2.83696 6 3.5ZM6 3.5H16M6 3.5V13.5C6 14.4946 6.39509 15.4484 7.09835 16.1517C7.80161 16.8549 8.75544 17.25 9.75 17.25H11M16 3.5C16 4.16304 16.2634 4.79893 16.7322 5.26777C17.2011 5.73661 17.837 6 18.5 6C19.163 6 19.7989 5.73661 20.2678 5.26777C20.7366 4.79893 21 4.16304 21 3.5C21 2.83696 20.7366 2.20107 20.2678 1.73223C19.7989 1.26339 19.163 1 18.5 1C17.837 1 17.2011 1.26339 16.7322 1.73223C16.2634 2.20107 16 2.83696 16 3.5Z" stroke="#CF0000" stroke-width="2" stroke-linecap="round" stroke-linejoin="round"/>
</svg>
