<svg width="15" height="20" viewBox="0 0 15 20" fill="none" xmlns="http://www.w3.org/2000/svg">
<path d="M1 16V17.25C1 17.5815 1.1317 17.8995 1.36612 18.1339C1.60054 18.3683 1.91848 18.5 2.25 18.5H12.25C12.5815 18.5 12.8995 18.3683 13.1339 18.1339C13.3683 17.8995 13.5 17.5815 13.5 17.25V16C13.5 15.0054 13.1049 14.0516 12.4017 13.3483C11.6984 12.6451 10.7446 12.25 9.75 12.25H4.75C3.75544 12.25 2.80161 12.6451 2.09835 13.3483C1.39509 14.0516 1 15.0054 1 16ZM11 4.75C11 5.74456 10.6049 6.69839 9.90165 7.40165C9.19839 8.10491 8.24456 8.5 7.25 8.5C6.25544 8.5 5.30161 8.10491 4.59835 7.40165C3.89509 6.69839 3.5 5.74456 3.5 4.75C3.5 3.75544 3.89509 2.80161 4.59835 2.09835C5.30161 1.39509 6.25544 1 7.25 1C8.24456 1 9.19839 1.39509 9.90165 2.09835C10.6049 2.80161 11 3.75544 11 4.75Z" stroke="#CF0000" stroke-width="2"/>
</svg>
